<mxfile host="65bd71144e">
    <diagram id="gGN1RW6EFqMM8roqFQ5v" name="Page-1">
        <mxGraphModel dx="581" dy="571" grid="1" gridSize="10" guides="1" tooltips="1" connect="1" arrows="1" fold="1" page="1" pageScale="1" pageWidth="850" pageHeight="1100" math="0" shadow="0">
            <root>
                <mxCell id="0"/>
                <mxCell id="1" parent="0"/>
                <mxCell id="5" value="" style="edgeStyle=none;html=1;exitX=1;exitY=0.5;exitDx=0;exitDy=0;" parent="1" source="2" target="4" edge="1">
                    <mxGeometry relative="1" as="geometry"/>
                </mxCell>
                <mxCell id="2" value="401a06" style="rounded=0;whiteSpace=wrap;html=1;" parent="1" vertex="1">
                    <mxGeometry x="230" y="200" width="120" height="30" as="geometry"/>
                </mxCell>
                <mxCell id="4" value="&lt;span style=&quot;color: rgb(0, 148, 86); font-family: &amp;quot;JetBrains Mono&amp;quot;, &amp;quot;Fira Code Retina&amp;quot;, Consolas, &amp;quot;Courier New&amp;quot;, monospace, Consolas, &amp;quot;Courier New&amp;quot;, monospace; font-size: 16px; text-align: left; background-color: rgb(242, 241, 248);&quot;&gt;rax = rsp&lt;/span&gt;" style="whiteSpace=wrap;html=1;rounded=0;" parent="1" vertex="1">
                    <mxGeometry x="425" y="130" width="120" height="35" as="geometry"/>
                </mxCell>
                <mxCell id="6" value="buf" style="whiteSpace=wrap;html=1;rounded=0;" parent="1" vertex="1">
                    <mxGeometry x="230" y="120" width="120" height="80" as="geometry"/>
                </mxCell>
                <mxCell id="7" value="buf" style="text;html=1;align=center;verticalAlign=middle;resizable=0;points=[];autosize=1;strokeColor=none;fillColor=none;" parent="1" vertex="1">
                    <mxGeometry x="190" y="105" width="40" height="30" as="geometry"/>
                </mxCell>
                <mxCell id="9" value="buf + 40" style="text;html=1;align=center;verticalAlign=middle;resizable=0;points=[];autosize=1;strokeColor=none;fillColor=none;" parent="1" vertex="1">
                    <mxGeometry x="165" y="185" width="70" height="30" as="geometry"/>
                </mxCell>
                <mxCell id="10" value="ret" style="whiteSpace=wrap;html=1;rounded=0;" parent="1" vertex="1">
                    <mxGeometry x="545" y="130" width="60" height="35" as="geometry"/>
                </mxCell>
                <mxCell id="36" style="edgeStyle=none;html=1;exitX=1;exitY=0.5;exitDx=0;exitDy=0;entryX=0;entryY=0.5;entryDx=0;entryDy=0;" edge="1" parent="1" source="11" target="19">
                    <mxGeometry relative="1" as="geometry"/>
                </mxCell>
                <mxCell id="11" value="4019c5" style="rounded=0;whiteSpace=wrap;html=1;" vertex="1" parent="1">
                    <mxGeometry x="230" y="230" width="120" height="30" as="geometry"/>
                </mxCell>
                <mxCell id="12" value="0x48" style="rounded=0;whiteSpace=wrap;html=1;" vertex="1" parent="1">
                    <mxGeometry x="230" y="290" width="120" height="30" as="geometry"/>
                </mxCell>
                <mxCell id="38" style="edgeStyle=none;html=1;exitX=1;exitY=0.5;exitDx=0;exitDy=0;entryX=0;entryY=0.5;entryDx=0;entryDy=0;" edge="1" parent="1" source="13" target="23">
                    <mxGeometry relative="1" as="geometry"/>
                </mxCell>
                <mxCell id="13" value="4019ab" style="rounded=0;whiteSpace=wrap;html=1;" vertex="1" parent="1">
                    <mxGeometry x="230" y="260" width="120" height="30" as="geometry"/>
                </mxCell>
                <mxCell id="39" style="edgeStyle=none;html=1;exitX=1;exitY=0.5;exitDx=0;exitDy=0;entryX=0;entryY=0.5;entryDx=0;entryDy=0;" edge="1" parent="1" source="14" target="25">
                    <mxGeometry relative="1" as="geometry"/>
                </mxCell>
                <mxCell id="14" value="4019dd" style="rounded=0;whiteSpace=wrap;html=1;" vertex="1" parent="1">
                    <mxGeometry x="230" y="320" width="120" height="30" as="geometry"/>
                </mxCell>
                <mxCell id="40" style="edgeStyle=none;html=1;exitX=1;exitY=0.5;exitDx=0;exitDy=0;" edge="1" parent="1" source="15" target="27">
                    <mxGeometry relative="1" as="geometry"/>
                </mxCell>
                <mxCell id="15" value="401a69" style="rounded=0;whiteSpace=wrap;html=1;" vertex="1" parent="1">
                    <mxGeometry x="230" y="350" width="120" height="30" as="geometry"/>
                </mxCell>
                <mxCell id="41" style="edgeStyle=none;html=1;exitX=1;exitY=0.5;exitDx=0;exitDy=0;entryX=0;entryY=0.5;entryDx=0;entryDy=0;" edge="1" parent="1" source="16" target="29">
                    <mxGeometry relative="1" as="geometry"/>
                </mxCell>
                <mxCell id="16" value="401a13" style="rounded=0;whiteSpace=wrap;html=1;" vertex="1" parent="1">
                    <mxGeometry x="230" y="380" width="120" height="30" as="geometry"/>
                </mxCell>
                <mxCell id="42" style="edgeStyle=none;html=1;exitX=1;exitY=0.5;exitDx=0;exitDy=0;entryX=0;entryY=0.5;entryDx=0;entryDy=0;" edge="1" parent="1" source="17" target="31">
                    <mxGeometry relative="1" as="geometry"/>
                </mxCell>
                <mxCell id="17" value="4019d6" style="rounded=0;whiteSpace=wrap;html=1;" vertex="1" parent="1">
                    <mxGeometry x="230" y="410" width="120" height="30" as="geometry"/>
                </mxCell>
                <mxCell id="44" style="edgeStyle=none;html=1;exitX=1;exitY=0.5;exitDx=0;exitDy=0;entryX=0;entryY=0.5;entryDx=0;entryDy=0;" edge="1" parent="1" source="18" target="33">
                    <mxGeometry relative="1" as="geometry"/>
                </mxCell>
                <mxCell id="18" value="4019c5" style="rounded=0;whiteSpace=wrap;html=1;" vertex="1" parent="1">
                    <mxGeometry x="230" y="440" width="120" height="30" as="geometry"/>
                </mxCell>
                <mxCell id="19" value="&lt;span style=&quot;color: rgb(0, 148, 86); font-family: &amp;quot;JetBrains Mono&amp;quot;, &amp;quot;Fira Code Retina&amp;quot;, Consolas, &amp;quot;Courier New&amp;quot;, monospace, Consolas, &amp;quot;Courier New&amp;quot;, monospace; font-size: 16px; text-align: left; background-color: rgb(242, 241, 248);&quot;&gt;rdi = rax&lt;/span&gt;" style="whiteSpace=wrap;html=1;rounded=0;" vertex="1" parent="1">
                    <mxGeometry x="425" y="195" width="120" height="35" as="geometry"/>
                </mxCell>
                <mxCell id="20" value="ret" style="whiteSpace=wrap;html=1;rounded=0;" vertex="1" parent="1">
                    <mxGeometry x="545" y="195" width="60" height="35" as="geometry"/>
                </mxCell>
                <mxCell id="23" value="&lt;span style=&quot;color: rgb(0, 148, 86); font-family: &amp;quot;JetBrains Mono&amp;quot;, &amp;quot;Fira Code Retina&amp;quot;, Consolas, &amp;quot;Courier New&amp;quot;, monospace, Consolas, &amp;quot;Courier New&amp;quot;, monospace; font-size: 16px; text-align: left; background-color: rgb(242, 241, 248);&quot;&gt;popq %eax&lt;/span&gt;" style="whiteSpace=wrap;html=1;rounded=0;" vertex="1" parent="1">
                    <mxGeometry x="425" y="265" width="120" height="35" as="geometry"/>
                </mxCell>
                <mxCell id="24" value="ret" style="whiteSpace=wrap;html=1;rounded=0;" vertex="1" parent="1">
                    <mxGeometry x="545" y="265" width="60" height="35" as="geometry"/>
                </mxCell>
                <mxCell id="25" value="&lt;span style=&quot;color: rgb(0, 148, 86); font-family: &amp;quot;JetBrains Mono&amp;quot;, &amp;quot;Fira Code Retina&amp;quot;, Consolas, &amp;quot;Courier New&amp;quot;, monospace, Consolas, &amp;quot;Courier New&amp;quot;, monospace; font-size: 16px; text-align: left; background-color: rgb(242, 241, 248);&quot;&gt;edx = eax&lt;/span&gt;" style="whiteSpace=wrap;html=1;rounded=0;" vertex="1" parent="1">
                    <mxGeometry x="425" y="310" width="120" height="35" as="geometry"/>
                </mxCell>
                <mxCell id="26" value="ret" style="whiteSpace=wrap;html=1;rounded=0;" vertex="1" parent="1">
                    <mxGeometry x="545" y="310" width="60" height="35" as="geometry"/>
                </mxCell>
                <mxCell id="27" value="&lt;span style=&quot;color: rgb(0, 148, 86); font-family: &amp;quot;JetBrains Mono&amp;quot;, &amp;quot;Fira Code Retina&amp;quot;, Consolas, &amp;quot;Courier New&amp;quot;, monospace, Consolas, &amp;quot;Courier New&amp;quot;, monospace; font-size: 16px; text-align: left; background-color: rgb(242, 241, 248);&quot;&gt;ecx = edx&lt;/span&gt;" style="whiteSpace=wrap;html=1;rounded=0;" vertex="1" parent="1">
                    <mxGeometry x="425" y="355" width="120" height="35" as="geometry"/>
                </mxCell>
                <mxCell id="28" value="ret" style="whiteSpace=wrap;html=1;rounded=0;" vertex="1" parent="1">
                    <mxGeometry x="545" y="355" width="60" height="35" as="geometry"/>
                </mxCell>
                <mxCell id="29" value="&lt;span style=&quot;color: rgb(0, 148, 86); font-family: &amp;quot;JetBrains Mono&amp;quot;, &amp;quot;Fira Code Retina&amp;quot;, Consolas, &amp;quot;Courier New&amp;quot;, monospace, Consolas, &amp;quot;Courier New&amp;quot;, monospace; font-size: 16px; text-align: left; background-color: rgb(242, 241, 248);&quot;&gt;rsi = ecx&lt;/span&gt;" style="whiteSpace=wrap;html=1;rounded=0;" vertex="1" parent="1">
                    <mxGeometry x="425" y="405" width="120" height="35" as="geometry"/>
                </mxCell>
                <mxCell id="30" value="ret" style="whiteSpace=wrap;html=1;rounded=0;" vertex="1" parent="1">
                    <mxGeometry x="545" y="405" width="60" height="35" as="geometry"/>
                </mxCell>
                <mxCell id="31" value="&lt;span style=&quot;color: rgb(0, 148, 86); font-family: &amp;quot;JetBrains Mono&amp;quot;, &amp;quot;Fira Code Retina&amp;quot;, Consolas, &amp;quot;Courier New&amp;quot;, monospace, Consolas, &amp;quot;Courier New&amp;quot;, monospace; font-size: 16px; text-align: left; background-color: rgb(242, 241, 248);&quot;&gt;rax = rdi + rsi&lt;/span&gt;" style="whiteSpace=wrap;html=1;rounded=0;" vertex="1" parent="1">
                    <mxGeometry x="425" y="450" width="155" height="35" as="geometry"/>
                </mxCell>
                <mxCell id="32" value="ret" style="whiteSpace=wrap;html=1;rounded=0;" vertex="1" parent="1">
                    <mxGeometry x="580" y="450" width="50" height="35" as="geometry"/>
                </mxCell>
                <mxCell id="33" value="&lt;span style=&quot;color: rgb(0, 148, 86); font-family: &amp;quot;JetBrains Mono&amp;quot;, &amp;quot;Fira Code Retina&amp;quot;, Consolas, &amp;quot;Courier New&amp;quot;, monospace, Consolas, &amp;quot;Courier New&amp;quot;, monospace; font-size: 16px; text-align: left; background-color: rgb(242, 241, 248);&quot;&gt;rdi = rax&lt;/span&gt;" style="whiteSpace=wrap;html=1;rounded=0;" vertex="1" parent="1">
                    <mxGeometry x="425" y="495" width="120" height="35" as="geometry"/>
                </mxCell>
                <mxCell id="34" value="ret" style="whiteSpace=wrap;html=1;rounded=0;" vertex="1" parent="1">
                    <mxGeometry x="545" y="495" width="60" height="35" as="geometry"/>
                </mxCell>
                <mxCell id="45" value="&lt;div style=&quot;color: rgb(12, 0, 107); background-color: rgb(242, 241, 248); font-family: &amp;quot;JetBrains Mono&amp;quot;, &amp;quot;Fira Code Retina&amp;quot;, Consolas, &amp;quot;Courier New&amp;quot;, monospace, Consolas, &amp;quot;Courier New&amp;quot;, monospace; font-weight: normal; font-size: 16px; line-height: 22px;&quot;&gt;&lt;div&gt;&lt;span style=&quot;color: #0c006b;font-weight: bold;&quot;&gt;1.&lt;/span&gt;&lt;span style=&quot;color: #0c006b;&quot;&gt; &lt;/span&gt;&lt;span style=&quot;color: #009456;font-weight: bold;&quot;&gt;`&lt;/span&gt;&lt;span style=&quot;color: #009456;&quot;&gt;rax = rsp&lt;/span&gt;&lt;span style=&quot;color: #009456;font-weight: bold;&quot;&gt;`&lt;/span&gt;&lt;span style=&quot;color: #0c006b;&quot;&gt; -&amp;gt; &lt;/span&gt;&lt;span style=&quot;color: #009456;font-weight: bold;&quot;&gt;`&lt;/span&gt;&lt;span style=&quot;color: #009456;&quot;&gt;401a06&lt;/span&gt;&lt;span style=&quot;color: #009456;font-weight: bold;&quot;&gt;`&lt;/span&gt;&lt;/div&gt;&lt;div&gt;&lt;span style=&quot;color: #0c006b;font-weight: bold;&quot;&gt;2.&lt;/span&gt;&lt;span style=&quot;color: #0c006b;&quot;&gt; &lt;/span&gt;&lt;span style=&quot;color: #009456;font-weight: bold;&quot;&gt;`&lt;/span&gt;&lt;span style=&quot;color: #009456;&quot;&gt;rdi = rax&lt;/span&gt;&lt;span style=&quot;color: #009456;font-weight: bold;&quot;&gt;`&lt;/span&gt;&lt;span style=&quot;color: #0c006b;&quot;&gt; -&amp;gt; &lt;/span&gt;&lt;span style=&quot;color: #009456;font-weight: bold;&quot;&gt;`&lt;/span&gt;&lt;span style=&quot;color: #009456;&quot;&gt;4019c5&lt;/span&gt;&lt;span style=&quot;color: #009456;font-weight: bold;&quot;&gt;`&lt;/span&gt;&lt;/div&gt;&lt;div&gt;&lt;span style=&quot;color: #0c006b;font-weight: bold;&quot;&gt;3.&lt;/span&gt;&lt;span style=&quot;color: #0c006b;&quot;&gt; 偏移量0x48存储在栈上&lt;/span&gt;&lt;/div&gt;&lt;div&gt;&lt;span style=&quot;color: #0c006b;font-weight: bold;&quot;&gt;4.&lt;/span&gt;&lt;span style=&quot;color: #0c006b;&quot;&gt; &lt;/span&gt;&lt;span style=&quot;color: #009456;font-weight: bold;&quot;&gt;`&lt;/span&gt;&lt;span style=&quot;color: #009456;&quot;&gt;popq %eax&lt;/span&gt;&lt;span style=&quot;color: #009456;font-weight: bold;&quot;&gt;`&lt;/span&gt;&lt;span style=&quot;color: #0c006b;&quot;&gt; -&amp;gt; &lt;/span&gt;&lt;span style=&quot;color: #009456;font-weight: bold;&quot;&gt;`&lt;/span&gt;&lt;span style=&quot;color: #009456;&quot;&gt;4019ab&lt;/span&gt;&lt;span style=&quot;color: #009456;font-weight: bold;&quot;&gt;`&lt;/span&gt;&lt;/div&gt;&lt;div&gt;&lt;span style=&quot;color: #0c006b;font-weight: bold;&quot;&gt;5.&lt;/span&gt;&lt;span style=&quot;color: #0c006b;&quot;&gt; &lt;/span&gt;&lt;span style=&quot;color: #009456;font-weight: bold;&quot;&gt;`&lt;/span&gt;&lt;span style=&quot;color: #009456;&quot;&gt;edx = eax&lt;/span&gt;&lt;span style=&quot;color: #009456;font-weight: bold;&quot;&gt;`&lt;/span&gt;&lt;span style=&quot;color: #0c006b;&quot;&gt; -&amp;gt; &lt;/span&gt;&lt;span style=&quot;color: #009456;font-weight: bold;&quot;&gt;`&lt;/span&gt;&lt;span style=&quot;color: #009456;&quot;&gt;4019dd&lt;/span&gt;&lt;span style=&quot;color: #009456;font-weight: bold;&quot;&gt;`&lt;/span&gt;&lt;/div&gt;&lt;div&gt;&lt;span style=&quot;color: #0c006b;font-weight: bold;&quot;&gt;6.&lt;/span&gt;&lt;span style=&quot;color: #0c006b;&quot;&gt; &lt;/span&gt;&lt;span style=&quot;color: #009456;font-weight: bold;&quot;&gt;`&lt;/span&gt;&lt;span style=&quot;color: #009456;&quot;&gt;ecx = edx&lt;/span&gt;&lt;span style=&quot;color: #009456;font-weight: bold;&quot;&gt;`&lt;/span&gt;&lt;span style=&quot;color: #0c006b;&quot;&gt; -&amp;gt; &lt;/span&gt;&lt;span style=&quot;color: #009456;font-weight: bold;&quot;&gt;`&lt;/span&gt;&lt;span style=&quot;color: #009456;&quot;&gt;401a69&lt;/span&gt;&lt;span style=&quot;color: #009456;font-weight: bold;&quot;&gt;`&lt;/span&gt;&lt;/div&gt;&lt;div&gt;&lt;span style=&quot;color: #0c006b;font-weight: bold;&quot;&gt;7.&lt;/span&gt;&lt;span style=&quot;color: #0c006b;&quot;&gt; &lt;/span&gt;&lt;span style=&quot;color: #009456;font-weight: bold;&quot;&gt;`&lt;/span&gt;&lt;span style=&quot;color: #009456;&quot;&gt;rsi = ecx&lt;/span&gt;&lt;span style=&quot;color: #009456;font-weight: bold;&quot;&gt;`&lt;/span&gt;&lt;span style=&quot;color: #0c006b;&quot;&gt; -&amp;gt; &lt;/span&gt;&lt;span style=&quot;color: #009456;font-weight: bold;&quot;&gt;`&lt;/span&gt;&lt;span style=&quot;color: #009456;&quot;&gt;401a13&lt;/span&gt;&lt;span style=&quot;color: #009456;font-weight: bold;&quot;&gt;`&lt;/span&gt;&lt;/div&gt;&lt;div&gt;&lt;span style=&quot;color: #0c006b;font-weight: bold;&quot;&gt;8.&lt;/span&gt;&lt;span style=&quot;color: #0c006b;&quot;&gt; &lt;/span&gt;&lt;span style=&quot;color: #009456;font-weight: bold;&quot;&gt;`&lt;/span&gt;&lt;span style=&quot;color: #009456;&quot;&gt;rax = rdi + rsi&lt;/span&gt;&lt;span style=&quot;color: #009456;font-weight: bold;&quot;&gt;`&lt;/span&gt;&lt;span style=&quot;color: #0c006b;&quot;&gt; -&amp;gt; &lt;/span&gt;&lt;span style=&quot;color: #009456;font-weight: bold;&quot;&gt;`&lt;/span&gt;&lt;span style=&quot;color: #009456;&quot;&gt;4019d6&lt;/span&gt;&lt;span style=&quot;color: #009456;font-weight: bold;&quot;&gt;`&lt;/span&gt;&lt;/div&gt;&lt;div&gt;&lt;span style=&quot;color: #0c006b;font-weight: bold;&quot;&gt;9.&lt;/span&gt;&lt;span style=&quot;color: #0c006b;&quot;&gt; &lt;/span&gt;&lt;span style=&quot;color: #009456;font-weight: bold;&quot;&gt;`&lt;/span&gt;&lt;span style=&quot;color: #009456;&quot;&gt;rdi = rax&lt;/span&gt;&lt;span style=&quot;color: #009456;font-weight: bold;&quot;&gt;`&lt;/span&gt;&lt;span style=&quot;color: #0c006b;&quot;&gt; -&amp;gt; &lt;/span&gt;&lt;span style=&quot;color: #009456;font-weight: bold;&quot;&gt;`&lt;/span&gt;&lt;span style=&quot;color: #009456;&quot;&gt;4019c5&lt;/span&gt;&lt;span style=&quot;color: #009456;font-weight: bold;&quot;&gt;`&lt;/span&gt;&lt;/div&gt;&lt;/div&gt;" style="text;whiteSpace=wrap;html=1;" vertex="1" parent="1">
                    <mxGeometry x="640" y="20" width="340" height="220" as="geometry"/>
                </mxCell>
                <mxCell id="46" value="buf+48+72" style="text;html=1;align=center;verticalAlign=middle;resizable=0;points=[];autosize=1;strokeColor=none;fillColor=none;" vertex="1" parent="1">
                    <mxGeometry x="150" y="485" width="80" height="30" as="geometry"/>
                </mxCell>
                <mxCell id="48" value="&lt;div style=&quot;color: rgb(12, 0, 107); background-color: rgb(242, 241, 248); font-family: &amp;quot;JetBrains Mono&amp;quot;, &amp;quot;Fira Code Retina&amp;quot;, Consolas, &amp;quot;Courier New&amp;quot;, monospace, Consolas, &amp;quot;Courier New&amp;quot;, monospace; font-size: 16px; line-height: 22px;&quot;&gt;&lt;span style=&quot;color: #009456;&quot;&gt;0x35 0x39 0x62 0x39 0x39 0x37 0x66 0x61 0x00&lt;/span&gt;&lt;/div&gt;" style="whiteSpace=wrap;html=1;" vertex="1" parent="1">
                    <mxGeometry x="230" y="500" width="120" height="140" as="geometry"/>
                </mxCell>
                <mxCell id="49" value="4018fa" style="rounded=0;whiteSpace=wrap;html=1;" vertex="1" parent="1">
                    <mxGeometry x="230" y="470" width="120" height="30" as="geometry"/>
                </mxCell>
                <mxCell id="50" value="buf + 48" style="text;html=1;align=center;verticalAlign=middle;resizable=0;points=[];autosize=1;strokeColor=none;fillColor=none;" vertex="1" parent="1">
                    <mxGeometry x="165" y="215" width="70" height="30" as="geometry"/>
                </mxCell>
            </root>
        </mxGraphModel>
    </diagram>
</mxfile>